<?xml version="1.0" encoding="UTF-8" standalone="no"?>
<!-- Created with Inkscape (http://www.inkscape.org/) -->

<svg
   xmlns:dc="http://purl.org/dc/elements/1.1/"
   xmlns:cc="http://creativecommons.org/ns#"
   xmlns:rdf="http://www.w3.org/1999/02/22-rdf-syntax-ns#"
   xmlns:svg="http://www.w3.org/2000/svg"
   xmlns="http://www.w3.org/2000/svg"
   xmlns:sodipodi="http://sodipodi.sourceforge.net/DTD/sodipodi-0.dtd"
   xmlns:inkscape="http://www.inkscape.org/namespaces/inkscape"
   width="142.44185mm"
   height="142.44205mm"
   viewBox="0 0 142.44185 142.44205"
   version="1.1"
   id="svg4584"
   inkscape:version="0.92.3 (d244b95, 2018-08-02)"
   sodipodi:docname="3.svg">
  <defs
     id="defs4578" />
  <sodipodi:namedview
     id="base"
     pagecolor="#ffffff"
     bordercolor="#666666"
     borderopacity="1.0"
     inkscape:pageopacity="0.0"
     inkscape:pageshadow="2"
     inkscape:zoom="0.35"
     inkscape:cx="396.29795"
     inkscape:cy="-20.84461"
     inkscape:document-units="mm"
     inkscape:current-layer="layer1"
     showgrid="false"
     inkscape:window-width="1859"
     inkscape:window-height="1056"
     inkscape:window-x="61"
     inkscape:window-y="24"
     inkscape:window-maximized="1" />
  <metadata
     id="metadata4581">
    <rdf:RDF>
      <cc:Work
         rdf:about="">
        <dc:format>image/svg+xml</dc:format>
        <dc:type
           rdf:resource="http://purl.org/dc/dcmitype/StillImage" />
        <dc:title></dc:title>
      </cc:Work>
    </rdf:RDF>
  </metadata>
  <g
     inkscape:label="Layer 1"
     inkscape:groupmode="layer"
     id="layer1"
     transform="translate(-0.97949969,-0.87615027)">
    <g
       id="g4709"
       transform="matrix(3.9729899,0,0,3.9729899,-543.5224,-74.686683)">
      <g
         id="g4677">
        <g
           transform="matrix(0.35277777,0,0,-0.35277777,121.60007,98.280969)"
           id="g4481">
          <g
             transform="translate(81.772515,203.47387)"
             id="g3920">
            <path
               style="fill:#79e8dd;fill-opacity:1;fill-rule:nonzero;stroke:none"
               d="m 0,0 c 8.3483333,0 16.696667,0 25.045,0 2.819667,6.7676667 5.639333,13.535333 8.459,20.303 -4.428411,1.519306 -9.209972,0.601821 -13.814923,0.853 C 11.463522,21.11784 3.2328664,21.23304 -4.9894375,21.09711 -9.3432824,21.486564 -6.9558821,18.241693 -6.2013518,16.016544 -4.1342346,10.677695 -2.0671173,5.3388477 0,0 Z"
               id="path3922"
               inkscape:connector-curvature="0" />
          </g>
          <g
             transform="translate(65.327215,185.97967)"
             id="g3924">
            <path
               style="fill:#55abe0;fill-opacity:1;fill-rule:nonzero;stroke:none"
               d="M 0,0 C 5.679,5.7446667 11.358,11.489333 17.037,17.234 14.219333,24.088333 11.401667,30.942667 8.584,37.797 4.3785799,35.742118 1.6471458,31.711889 -1.786498,28.63469 -7.5769153,22.790762 -13.480483,17.052653 -19.19875,11.14125 -22.565622,8.3045534 -18.551906,7.7774433 -16.42034,6.790432 -10.946894,4.5269547 -5.4734468,2.2634773 0,0 Z"
               id="path3926"
               inkscape:connector-curvature="0" />
          </g>
          <g
             transform="translate(44.659216,153.16327)"
             id="g3928">
            <path
               style="fill:#4ba6eb;fill-opacity:1;fill-rule:nonzero;stroke:none"
               d="m 0,0 c 2.0559101,-4.2025597 6.0826402,-6.9326139 9.158904,-10.363904 5.848328,-5.792828 11.588932,-11.70104 17.506018,-17.420221 2.83285,-3.361635 3.357255,0.655075 4.345866,2.780866 C 33.144526,-19.851173 35.278263,-14.699086 37.412,-9.547 31.509,-3.644 25.606,2.259 19.703,8.162 13.135333,5.4413333 6.5676667,2.7206667 0,0 Z"
               id="path3930"
               inkscape:connector-curvature="0" />
          </g>
          <g
             transform="translate(124.43262,186.75507)"
             id="g3932">
            <path
               style="fill:#6cd9ff;fill-opacity:1;fill-rule:nonzero;stroke:none"
               d="m 0,0 c -0.06566667,-8.672 -0.13133333,-17.344 -0.197,-26.016 6.763,-2.525333 13.526,-5.050667 20.289,-7.576 1.519278,4.427796 0.601846,9.208631 0.853,13.812923 -0.03834,8.22556 0.07741,16.4562639 -0.05917,24.6785458 C 21.275748,9.2542926 18.031794,6.869468 15.80509,6.1145216 10.536727,4.0763477 5.2683635,2.0381739 0,0 Z"
               id="path3934"
               inkscape:connector-curvature="0" />
          </g>
          <g
             transform="translate(106.81742,204.07537)"
             id="g3936">
            <path
               style="fill:#cafdff;fill-opacity:1;fill-rule:nonzero;stroke:none"
               d="m 0,0 c 6.002,-5.903 12.004,-11.806 18.006,-17.709 6.567,2.72 13.134,5.44 19.701,8.16 -2.053384,4.2071975 -6.085406,6.9378341 -9.163201,10.37160693 C 22.69962,6.6120426 16.960821,12.514156 11.049453,18.23175 8.2329317,21.591039 7.6626063,17.593953 6.64549,15.477337 4.4303266,10.318225 2.2151633,5.1591125 0,0 Z"
               id="path3938"
               inkscape:connector-curvature="0" />
          </g>
          <g
             transform="translate(43.807616,190.78247)"
             id="g3940">
            <path
               style="fill:#87dcff;fill-opacity:1;fill-rule:nonzero;stroke:none"
               d="m 0,0 c 0.03956061,-11.585096 -0.07954664,-23.175609 0.0603125,-34.757281 -0.3714546,-4.376874 2.840107,-1.904648 5.0403652,-1.102778 5.1514403,2.133686 10.3028813,4.267373 15.4543223,6.401059 0,8.348333 0,16.696667 0,25.045 C 13.988,-1.6933333 7.421,1.0273333 0.854,3.748 0.36967639,2.5585639 0.0146985,1.2925779 0,0 Z"
               id="path3942"
               inkscape:connector-curvature="0" />
          </g>
          <g
             transform="translate(77.655315,123.05977)"
             id="g3944">
            <path
               style="fill:#328cc4;fill-opacity:1;fill-rule:nonzero;stroke:none"
               d="M 0,0 C 11.58482,0.0397474 23.1751,-0.07992074 34.756469,0.06059375 39.139576,-0.30989526 36.659022,2.8960966 35.848623,5.0950877 33.554749,10.584058 31.260874,16.073029 28.967,21.562 c -8.021,0 -16.042,0 -24.063,0 C 2.0206667,14.659333 -0.86266667,7.7566667 -3.746,0.854 -2.5568024,0.37113838 -1.2919141,0.01512916 0,0 Z"
               id="path3946"
               inkscape:connector-curvature="0" />
          </g>
          <g
             transform="translate(124.22362,161.57147)"
             id="g3948">
            <path
               style="fill:#64e8db;fill-opacity:1;fill-rule:nonzero;stroke:none"
               d="m 0,0 c -5.8673333,-5.6496667 -11.734667,-11.299333 -17.602,-16.949 2.885,-6.903 5.77,-13.806 8.655,-20.709 4.2038031,2.057167 6.9352733,6.085318 10.367904,9.162904 5.7902022,5.844613 11.693407,11.583546 17.411549,17.495549 3.365509,2.8359024 -0.647729,3.3639782 -2.778317,4.3520385 C 10.702758,-4.4316723 5.3513788,-2.2158362 0,0 Z"
               id="path3950"
               inkscape:connector-curvature="0" />
          </g>
          <g
             transform="translate(82.071315,143.61647)"
             id="g3952">
            <path
               style="fill:#99fff7;fill-opacity:1;fill-rule:nonzero;stroke:none"
               d="m 0,0 c -5.903,5.9023333 -11.806,11.804667 -17.709,17.707 0,8.347667 0,16.695333 0,25.043 5.903,5.903 11.806,11.806 17.709,17.709 8.347,0 16.694,0 25.041,0 5.903,-5.903 11.806,-11.806 17.709,-17.709 0,-8.347667 0,-16.695333 0,-25.043 C 36.847,11.804667 30.944,5.9023333 25.041,0 16.694,0 8.347,0 0,0 Z"
               id="path3954"
               inkscape:connector-curvature="0" />
          </g>
          <g
             transform="translate(77.102615,148.58517)"
             id="g3956">
            <path
               style="fill:#ffffff;fill-opacity:1;fill-rule:nonzero;stroke:none"
               d="m 0,0 c 15.906333,11.499333 31.812667,22.998667 47.719,34.498 0.0054,1.766908 0.413377,3.700534 -1.421889,4.705072 C 44.177407,41.323048 42.057704,43.443024 39.938,45.563 23.396,33.604667 6.854,21.646333 -9.688,9.688 -6.4586667,6.4586667 -3.2293333,3.2293333 0,0 Z"
               id="path3958"
               inkscape:connector-curvature="0" />
          </g>
          <g
             transform="translate(124.82132,168.05197)"
             id="g3960">
            <path
               style="fill:#ffffff;fill-opacity:1;fill-rule:nonzero;stroke:none"
               d="m 0,0 c 0,2.14 0,4.28 0,6.42 -14.228,-10.2853333 -28.456,-20.570667 -42.684,-30.856 3.019804,0.112146 6.184791,-0.224358 9.11382,0.168305 C -22.38012,-16.178464 -11.19006,-8.0892318 0,0 Z"
               id="path3962"
               inkscape:connector-curvature="0" />
          </g>
          <g
             transform="translate(67.526415,197.68477)"
             id="g3964">
            <path
               style="fill:#ffffff;fill-opacity:1;fill-rule:nonzero;stroke:none"
               d="m 0,0 c -4.1511132,0.26496379 -6.9007271,-6.2724517 -7.6738923,-6.5659805 0.1518855,3.8465389 -6.3648977,6.03469577 -6.2847027,6.84100296 3.844428,-0.15299902 6.0393659,6.35597384 6.8434644,6.27794874 C -6.2718799,3.0373247 -3.4250972,0.79888118 0,0 Z"
               id="path3966"
               inkscape:connector-curvature="0" />
          </g>
          <g
             transform="translate(58.100616,180.52267)"
             id="g3968">
            <path
               style="fill:#ffffff;fill-opacity:1;fill-rule:nonzero;stroke:none"
               d="m 0,0 c -3.2482477,0.44321856 -3.7989237,-6.5067024 -4.9778965,-1.8522344 -1.388727,1.75275762 -4.4531561,1.68300735 -0.8861992,2.81203909 C -4.1111079,2.3500558 -4.1841584,5.4102387 -3.0504688,1.8450781 -2.3576518,0.81059218 -1.1275468,0.36958045 0,0 Z"
               id="path3970"
               inkscape:connector-curvature="0" />
          </g>
          <g
             transform="translate(134.80762,151.38787)"
             id="g3972">
            <path
               style="fill:#ffffff;fill-opacity:1;fill-rule:nonzero;stroke:none"
               d="M 0,0 C -3.2514162,0.4450685 -3.7983148,-6.5081291 -4.9794082,-1.8508281 -6.3694198,-0.09801259 -9.4327046,-0.16956888 -5.8654629,0.96121094 -4.1121069,2.3489384 -4.1838428,5.4106256 -3.051875,1.8464844 -2.3586289,0.81157098 -1.1278488,0.37046817 0,0 Z"
               id="path3974"
               inkscape:connector-curvature="0" />
          </g>
        </g>
      </g>
    </g>
  </g>
</svg>
