<?xml version="1.0" encoding="UTF-8" standalone="no"?>
<!-- Created with Inkscape (http://www.inkscape.org/) -->

<svg
   xmlns:dc="http://purl.org/dc/elements/1.1/"
   xmlns:cc="http://creativecommons.org/ns#"
   xmlns:rdf="http://www.w3.org/1999/02/22-rdf-syntax-ns#"
   xmlns:svg="http://www.w3.org/2000/svg"
   xmlns="http://www.w3.org/2000/svg"
   xmlns:sodipodi="http://sodipodi.sourceforge.net/DTD/sodipodi-0.dtd"
   xmlns:inkscape="http://www.inkscape.org/namespaces/inkscape"
   width="122.7962mm"
   height="157.97787mm"
   viewBox="0 0 122.7962 157.97787"
   version="1.1"
   id="svg4919"
   inkscape:version="0.92.3 (d244b95, 2018-08-02)"
   sodipodi:docname="33.svg">
  <defs
     id="defs4913" />
  <sodipodi:namedview
     id="base"
     pagecolor="#ffffff"
     bordercolor="#666666"
     borderopacity="1.0"
     inkscape:pageopacity="0.0"
     inkscape:pageshadow="2"
     inkscape:zoom="0.35"
     inkscape:cx="401.21184"
     inkscape:cy="37.112228"
     inkscape:document-units="mm"
     inkscape:current-layer="layer1"
     showgrid="false"
     inkscape:window-width="1859"
     inkscape:window-height="1056"
     inkscape:window-x="61"
     inkscape:window-y="24"
     inkscape:window-maximized="1" />
  <metadata
     id="metadata4916">
    <rdf:RDF>
      <cc:Work
         rdf:about="">
        <dc:format>image/svg+xml</dc:format>
        <dc:type
           rdf:resource="http://purl.org/dc/dcmitype/StillImage" />
        <dc:title></dc:title>
      </cc:Work>
    </rdf:RDF>
  </metadata>
  <g
     inkscape:label="Layer 1"
     inkscape:groupmode="layer"
     id="layer1"
     transform="translate(0.32063303,-0.67473592)">
    <g
       transform="matrix(1.4750915,0,0,-1.4750915,-524.98519,603.21874)"
       id="g4511">
      <g
         transform="translate(435.61622,321.29607)"
         id="g3976">
        <path
           inkscape:connector-curvature="0"
           id="path3978"
           style="fill:#24ae94;fill-opacity:1;fill-rule:nonzero;stroke:none"
           d="M 0,0 C 1.822,1.822 3.313,5.42 3.313,7.997 V 59.273 C 3.313,61.85 1.822,65.447 0,67.27 l -16.6,16.6 c -1.822,1.822 -5.42,3.313 -7.998,3.313 h -23.24 c -2.576,0 -6.176,-1.491 -7.996,-3.313 L -72.436,67.269 c -1.822,-1.822 -3.312,-5.42 -3.312,-7.998 V 7.998 c 0,-2.577 1.49,-6.176 3.312,-7.997 l 16.602,-16.602 c 1.82,-1.822 5.42,-3.313 7.996,-3.313 h 23.24 c 2.578,0 6.176,1.491 7.998,3.313 z" />
      </g>
      <g
         transform="translate(377.60262,330.92747)"
         id="g3980">
        <path
           inkscape:connector-curvature="0"
           id="path3982"
           style="fill:#188989;fill-opacity:1;fill-rule:nonzero;stroke:none"
           d="m 0,0 v 47.314 l -16.551,7.065 c -0.717,-1.578 -1.183,-3.312 -1.183,-4.739 V -1.634 c 0,-2.085 0.982,-4.825 2.322,-6.766 z" />
      </g>
      <g
         transform="translate(411.02052,408.47877)"
         id="g3984">
        <path
           inkscape:connector-curvature="0"
           id="path3986"
           style="fill:#3ac1b0;fill-opacity:1;fill-rule:nonzero;stroke:none"
           d="m 0,0 -23.254,-0.001 c -1.316,-0.001 -2.896,-0.394 -4.369,-1.018 l 6.123,-14.781 0.871,-2.692 18.037,1.84 0.85,0.851 6.123,14.783 C 2.902,-0.393 1.318,-0.001 0,0" />
      </g>
      <g
         transform="translate(387.76662,301.38347)"
         id="g3988">
        <path
           inkscape:connector-curvature="0"
           id="path3990"
           style="fill:#41d9c6;fill-opacity:1;fill-rule:nonzero;stroke:none"
           d="M 0,0 23.254,-0.001 C 24.572,0 26.156,0.393 27.635,1.018 L 21.512,15.8 20.662,16.651 2.625,18.491 1.754,15.799 -4.369,1.019 C -2.896,0.395 -1.316,0.001 0,0" />
      </g>
      <g
         transform="translate(379.78222,405.16717)"
         id="g3992">
        <path
           inkscape:connector-curvature="0"
           id="path3994"
           style="fill:#24ae94;fill-opacity:1;fill-rule:nonzero;stroke:none"
           d="m 0,0 -8.301,-8.302 -8.301,-8.301 c -0.91,-0.91 -1.738,-2.265 -2.339,-3.713 l 14.828,-6.143 2.519,-1.286 11.451,14.055 v 1.2 L 3.715,2.339 C 2.266,1.739 0.912,0.911 0,0" />
      </g>
      <g
         transform="translate(375.66902,331.15307)"
         id="g3996">
        <path
           inkscape:connector-curvature="0"
           id="path3998"
           style="fill:#3ac1b0;fill-opacity:1;fill-rule:nonzero;stroke:none"
           d="m 0,0 -14.828,-6.141 c 0.601,-1.45 1.43,-2.803 2.34,-3.715 l 8.301,-8.3 8.3,-8.303 c 0.912,-0.91 2.266,-1.738 3.715,-2.339 l 6.143,14.829 v 1.201 L 2.52,1.287 Z" />
      </g>
      <g
         transform="translate(435.62992,388.55247)"
         id="g4000">
        <path
           inkscape:connector-curvature="0"
           id="path4002"
           style="fill:#60e9cf;fill-opacity:1;fill-rule:nonzero;stroke:none"
           d="m 0,0 -16.623,16.622 c -0.91,0.907 -2.262,1.733 -3.707,2.332 L -26.473,4.125 V 2.924 l 11.452,-14.054 2.519,1.286 14.828,6.142 C 1.729,-2.259 0.906,-0.911 0,0" />
      </g>
      <g
         transform="translate(419.00692,304.68727)"
         id="g4004">
        <path
           inkscape:connector-curvature="0"
           id="path4006"
           style="fill:#188989;fill-opacity:1;fill-rule:nonzero;stroke:none"
           d="m 0,0 16.623,16.622 c 0.906,0.911 1.729,2.259 2.326,3.703 L 4.121,26.466 1.602,27.752 -9.85,13.698 V 12.497 L -3.707,-2.332 C -2.262,-1.733 -0.91,-0.908 0,0" />
      </g>
      <g
         transform="translate(389.63972,317.18377)"
         id="g4008">
        <path
           inkscape:connector-curvature="0"
           id="path4010"
           style="fill:#69ffe3;fill-opacity:1;fill-rule:nonzero;stroke:none"
           d="M 0,0 -13.971,13.969 V 61.524 L 0,75.494 H 19.52 L 33.488,61.525 V 13.968 L 19.52,0 Z" />
      </g>
      <g
         transform="translate(423.12792,376.26587)"
         id="g4012">
        <path
           inkscape:connector-curvature="0"
           id="path4014"
           style="fill:#f2fffd;fill-opacity:1;fill-rule:nonzero;stroke:none"
           d="m 0,0 -47.459,-34.312 v -10.801 l 3.418,-3.419 L 0,-16.691 Z" />
      </g>
      <g
         transform="translate(423.12792,344.54417)"
         id="g4016">
        <path
           inkscape:connector-curvature="0"
           id="path4018"
           style="fill:#f2fffd;fill-opacity:1;fill-rule:nonzero;stroke:none"
           d="m 0,0 v 6.42 l -39.043,-28.227 3.727,-3.725 z" />
      </g>
      <g
         transform="translate(371.72172,376.27167)"
         id="g4020">
        <path
           inkscape:connector-curvature="0"
           id="path4022"
           style="fill:#ffffff;fill-opacity:1;fill-rule:nonzero;stroke:none"
           d="m 0,0 c -5.053,-1.641 -6.379,-2.97 -8.016,-8.022 -1.64,5.049 -2.97,6.377 -8.023,8.017 5.053,1.638 6.381,2.963 8.018,8.014 C -6.381,2.958 -5.055,1.633 0,0" />
      </g>
      <g
         transform="translate(379.59282,389.66087)"
         id="g4024">
        <path
           inkscape:connector-curvature="0"
           id="path4026"
           style="fill:#ffffff;fill-opacity:1;fill-rule:nonzero;stroke:none"
           d="m 0,0 c -2.742,-0.891 -3.461,-1.612 -4.35,-4.355 -0.89,2.741 -1.613,3.463 -4.355,4.353 2.742,0.888 3.463,1.607 4.351,4.35 C -3.463,1.605 -2.742,0.887 0,0" />
      </g>
      <g
         transform="translate(433.70612,328.53147)"
         id="g4028">
        <path
           inkscape:connector-curvature="0"
           id="path4030"
           style="fill:#ffffff;fill-opacity:1;fill-rule:nonzero;stroke:none"
           d="m 0,0 c -2.742,-0.891 -3.463,-1.612 -4.352,-4.355 -0.89,2.742 -1.613,3.462 -4.355,4.352 2.742,0.89 3.465,1.609 4.352,4.351 C -3.465,1.606 -2.744,0.887 0,0" />
      </g>
    </g>
  </g>
</svg>
